<?xml version="1.0" encoding="UTF-8" standalone="no"?>
<!-- Created with Inkscape (http://www.inkscape.org/) -->

<svg
   xmlns:dc="http://purl.org/dc/elements/1.1/"
   xmlns:cc="http://creativecommons.org/ns#"
   xmlns:rdf="http://www.w3.org/1999/02/22-rdf-syntax-ns#"
   xmlns:svg="http://www.w3.org/2000/svg"
   xmlns="http://www.w3.org/2000/svg"
   xmlns:sodipodi="http://sodipodi.sourceforge.net/DTD/sodipodi-0.dtd"
   xmlns:inkscape="http://www.inkscape.org/namespaces/inkscape"
   width="485.02731"
   height="515.23358"
   id="svg2"
   version="1.1"
   inkscape:version="0.47 r22583"
   sodipodi:docname="clef_de_fa.svg"
   inkscape:export-filename="/home/jiba/src/songwrite2/data/clef_de_fa.png"
   inkscape:export-xdpi="6.4899998"
   inkscape:export-ydpi="6.4899998">
  <defs
     id="defs4">
    <inkscape:perspective
       sodipodi:type="inkscape:persp3d"
       inkscape:vp_x="0 : 526.18109 : 1"
       inkscape:vp_y="0 : 1000 : 0"
       inkscape:vp_z="744.09448 : 526.18109 : 1"
       inkscape:persp3d-origin="372.04724 : 350.78739 : 1"
       id="perspective10" />
    <inkscape:perspective
       id="perspective2826"
       inkscape:persp3d-origin="0.5 : 0.33333333 : 1"
       inkscape:vp_z="1 : 0.5 : 1"
       inkscape:vp_y="0 : 1000 : 0"
       inkscape:vp_x="0 : 0.5 : 1"
       sodipodi:type="inkscape:persp3d" />
  </defs>
  <sodipodi:namedview
     id="base"
     pagecolor="#ffffff"
     bordercolor="#666666"
     borderopacity="1.0"
     inkscape:pageopacity="0.0"
     inkscape:pageshadow="2"
     inkscape:zoom="0.175"
     inkscape:cx="-995.05113"
     inkscape:cy="-315.09769"
     inkscape:document-units="px"
     inkscape:current-layer="layer1"
     showgrid="false"
     inkscape:window-width="1334"
     inkscape:window-height="1013"
     inkscape:window-x="64"
     inkscape:window-y="0"
     inkscape:window-maximized="1" />
  <metadata
     id="metadata7">
    <rdf:RDF>
      <cc:Work
         rdf:about="">
        <dc:format>image/svg+xml</dc:format>
        <dc:type
           rdf:resource="http://purl.org/dc/dcmitype/StillImage" />
        <dc:title></dc:title>
      </cc:Work>
    </rdf:RDF>
  </metadata>
  <g
     inkscape:label="Calque 1"
     inkscape:groupmode="layer"
     id="layer1"
     transform="translate(-83.980852,-155.24377)">
    <path
       sodipodi:type="arc"
       style="color:#000000;fill:#000000;fill-opacity:1;fill-rule:evenodd;stroke:none;stroke-width:0.99999994px;marker:none;visibility:visible;display:inline;overflow:visible;enable-background:accumulate"
       id="path2816"
       sodipodi:cx="418.20316"
       sodipodi:cy="167.46855"
       sodipodi:rx="58.588848"
       sodipodi:ry="58.588848"
       d="m 476.792,167.46855 c 0,32.35773 -26.23112,58.58885 -58.58884,58.58885 -32.35773,0 -58.58885,-26.23112 -58.58885,-58.58885 0,-32.35773 26.23112,-58.58885 58.58885,-58.58885 32.35772,0 58.58884,26.23112 58.58884,58.58885 z"
       transform="matrix(0.85370205,0,0,0.85370205,161.96984,77.59366)" />
    <path
       d="m 476.792,167.46855 c 0,32.35773 -26.23112,58.58885 -58.58884,58.58885 -32.35773,0 -58.58885,-26.23112 -58.58885,-58.58885 0,-32.35773 26.23112,-58.58885 58.58885,-58.58885 32.35772,0 58.58884,26.23112 58.58884,58.58885 z"
       sodipodi:ry="58.588848"
       sodipodi:rx="58.588848"
       sodipodi:cy="167.46855"
       sodipodi:cx="418.20316"
       id="path2853"
       style="color:#000000;fill:#000000;fill-opacity:1;fill-rule:evenodd;stroke:none;stroke-width:0.99999994px;marker:none;visibility:visible;display:inline;overflow:visible;enable-background:accumulate"
       sodipodi:type="arc"
       transform="matrix(0.85370205,0,0,0.85370205,161.96984,256.63545)" />
    <path
       style="fill:#000000;stroke:none"
       d="M 121.21831,314.95082 C 126.53471,203.16653 186.50308,155.75792 281.83256,155.2452 419.2278,154.5008 640.79479,443.79391 92.239847,670.40223 82.25283,671.67336 80.99405,656.43524 90.270887,653.66839 245.24968,586.15064 371.19339,457.82525 373.18843,337.64363 374.9294,232.76725 340.08396,175.67425 270.603,176.11298 c -71.65579,0.45246 -111.38597,66.30291 -113.66642,95.90636 -8.5863,25.75889 -39.75888,44.95179 -35.71827,42.93148 z"
       id="path2878"
       sodipodi:nodetypes="csccsscc" />
    <path
       transform="matrix(1.4482759,0,0,1.4482759,-399.62271,66.531991)"
       d="m 476.792,167.46855 c 0,32.35773 -26.23112,58.58885 -58.58884,58.58885 -32.35773,0 -58.58885,-26.23112 -58.58885,-58.58885 0,-32.35773 26.23112,-58.58885 58.58885,-58.58885 32.35772,0 58.58884,26.23112 58.58884,58.58885 z"
       sodipodi:ry="58.588848"
       sodipodi:rx="58.588848"
       sodipodi:cy="167.46855"
       sodipodi:cx="418.20316"
       id="path2855"
       style="color:#000000;fill:#000000;fill-opacity:1;fill-rule:evenodd;stroke:none;stroke-width:0.99999994px;marker:none;visibility:visible;display:inline;overflow:visible;enable-background:accumulate"
       sodipodi:type="arc" />
  </g>
</svg>
